<svg xmlns="http://www.w3.org/2000/svg" width="73.076" height="72.911" viewBox="0 0 73.076 72.911">
  <g id="call-answer" transform="translate(0 -0.394)">
    <g id="Group_109" data-name="Group 109" transform="translate(0 0.394)">
      <g id="Group_108" data-name="Group 108" transform="translate(0 0)">
        <path id="Path_1050" data-name="Path 1050" d="M71.438,58.063,60.152,46.776a5.884,5.884,0,0,0-8.3.156L46.17,52.617c-.359-.2-.731-.4-1.122-.624A56.581,56.581,0,0,1,31.372,42.1a56.9,56.9,0,0,1-9.911-13.7c-.211-.381-.412-.748-.612-1.1l3.816-3.81,1.876-1.878a5.879,5.879,0,0,0,.151-8.3L15.407,2.031a5.878,5.878,0,0,0-8.3.156L3.93,5.386l.087.086A18.393,18.393,0,0,0,1.4,10.1,19.167,19.167,0,0,0,.23,14.785C-1.26,27.139,4.385,38.429,19.706,53.75c21.178,21.177,38.245,19.577,38.981,19.5a19.069,19.069,0,0,0,4.7-1.181A18.33,18.33,0,0,0,68,69.458l.069.062,3.222-3.155A5.89,5.89,0,0,0,71.438,58.063Z" transform="translate(0 -0.394)" fill="#fff"/>
      </g>
    </g>
  </g>
</svg>
